<svg width="280" height="41" viewBox="0 0 280 41" fill="none" xmlns="http://www.w3.org/2000/svg">
<path d="M50.9778 38.7837V10.2636H55.9187L67.968 29.5404L68.7207 31.4173L68.5604 29.3781V10.2566H73.4595V38.7766H68.6788L56.4693 19.2599L55.6818 17.3831L55.8769 19.3799V38.7766H50.9778V38.7837Z" fill="#19194A"/>
<path fill-rule="evenodd" clip-rule="evenodd" d="M77.4458 33.2238C77.4458 36.9846 79.9337 39.3836 84.8747 39.3836C89.5787 39.3836 92.6241 37.1821 94.1643 34.1904L94.7148 38.7909H98.9031V23.2679C98.9031 19.9445 97.7184 17.5032 94.7566 16.2261C93.2513 15.5416 91.3558 15.2241 88.8679 15.2241C82.3449 15.2241 78.5538 18.6604 78.1984 23.9029H83.5297C83.69 20.9394 85.3834 19.3024 89.1397 19.3024C92.6938 19.3024 93.9203 20.5019 93.9203 22.4212C93.9203 24.3051 92.3036 24.8625 88.2337 25.3846C85.3834 25.8292 83.69 26.1467 82.3449 26.6265C81.7108 26.8241 81.0418 27.1486 80.4076 27.5861C78.5538 28.7433 77.4458 30.6625 77.4458 33.2238ZM93.9622 28.3835C93.9622 30.5849 92.7356 32.9063 90.5265 34.3034C89.4184 34.9808 88.157 35.3406 86.6448 35.3406C84.2753 35.3406 83.0906 34.381 83.0906 32.4618C83.0906 31.4599 83.5297 30.6625 84.4356 30.0628C85.5088 29.3854 86.6099 29.0609 89.3766 28.6234C91.4324 28.2988 93.0144 27.819 93.9622 27.1416V28.3835Z" fill="#19194A"/>
<path d="M103.684 38.7838V15.7815H108.067L108.541 20.382C109.768 17.2209 112.332 15.2241 116.249 15.2241C121.74 15.2241 124.66 18.9073 124.66 24.6226V38.7838H119.448V25.8997C119.448 22.1389 118.263 19.7822 114.548 19.7822C110.674 19.7822 108.897 22.5058 108.897 26.7817V38.7838H103.684V38.7838Z" fill="#19194A"/>
<path fill-rule="evenodd" clip-rule="evenodd" d="M128.458 27.1416V27.7413C128.458 35.2629 132.563 39.3836 139.915 39.3836C144.536 39.3836 147.978 37.542 149.951 34.0634C150.898 32.3418 151.372 30.2603 151.372 27.7413V27.1416C151.372 22.0613 149.316 18.4981 145.839 16.6212C144.145 15.6616 142.208 15.2241 139.915 15.2241C135.448 15.2241 131.929 17.101 129.957 20.6219C128.974 22.3788 128.458 24.5803 128.458 27.1416ZM146.118 27.1414V27.6635C146.118 32.2217 143.825 34.783 139.915 34.783C136.048 34.783 133.755 32.2217 133.755 27.6635V27.1414C133.755 22.2658 136.243 19.7045 139.957 19.7045C143.706 19.7045 146.118 22.421 146.118 27.1414Z" fill="#19194A"/>
<path d="M172.586 35.7428C171.164 37.9442 168.795 39.3836 165.199 39.3836C158.327 39.3836 154.571 35.263 154.571 26.1044V23.3455C154.571 14.2222 159.233 9.74878 166.899 9.74878C173.931 9.74878 177.882 13.5519 178.196 20.1492H172.781C172.739 19.0696 172.502 18.1877 172.07 17.2704C171.283 15.5487 169.735 14.4339 166.815 14.4339C162.035 14.4339 159.86 17.3974 159.86 23.5572V25.9139C159.819 32.0737 161.993 34.6703 166.655 34.6703C168.16 34.6703 169.303 34.388 170.209 33.7883C172.028 32.6311 172.816 30.5496 172.857 28.3482H165.986V23.8183H178.314V38.7768H174.405L174.007 32.0173C173.736 33.3438 173.255 34.6209 172.586 35.7428Z" fill="#19194A"/>
<path fill-rule="evenodd" clip-rule="evenodd" d="M185.785 6.37598C183.492 6.37598 182.349 7.25797 182.349 9.81926C182.349 12.4582 183.297 13.2978 185.785 13.2978C188.112 13.2978 189.221 12.2959 189.221 9.81926C189.221 7.25797 188.078 6.37598 185.785 6.37598ZM188.349 15.7815H183.095V38.7838H188.349V15.7815Z" fill="#19194A"/>
<path fill-rule="evenodd" clip-rule="evenodd" d="M192.022 33.2238C192.022 36.9846 194.51 39.3836 199.451 39.3836C204.155 39.3836 207.193 37.1821 208.741 34.1904L209.291 38.7909H213.479V23.2679C213.479 19.9445 212.295 17.5032 209.333 16.2261C207.828 15.5416 205.932 15.2241 203.444 15.2241C196.921 15.2241 193.13 18.6604 192.775 23.9029H198.106C198.266 20.9394 199.96 19.3024 203.716 19.3024C207.27 19.3024 208.497 20.5019 208.497 22.4212C208.497 24.3051 206.88 24.8625 202.81 25.3846C199.96 25.8292 198.266 26.1467 196.921 26.6265C196.287 26.8241 195.618 27.1486 194.984 27.5861C193.13 28.7433 192.022 30.6625 192.022 33.2238ZM208.538 28.3835C208.538 30.5849 207.319 32.9063 205.103 34.3034C203.995 34.9808 202.733 35.3406 201.228 35.3406C198.859 35.3406 197.674 34.381 197.674 32.4618C197.674 31.4599 198.113 30.6625 199.019 30.0628C200.085 29.3854 201.186 29.0609 203.953 28.6234C206.009 28.2988 207.591 27.819 208.538 27.1416V28.3835Z" fill="#19194A"/>
<path d="M218.26 38.7838V15.7815H222.644L223.117 20.382C224.344 17.2209 226.909 15.2241 230.818 15.2241C236.31 15.2241 239.23 18.9073 239.23 24.6226V38.7838H234.017V25.8997C234.017 22.1389 232.832 19.7822 229.118 19.7822C225.25 19.7822 223.466 22.5058 223.466 26.7817V38.7838H218.26V38.7838Z" fill="#19194A"/>
<path d="M253.46 38.7838C251.328 38.7838 249.669 38.4663 248.561 37.9441C246.268 36.787 245.557 34.2609 245.557 29.5829V20.4172H241.132V15.9791H243.146C243.899 15.9791 244.408 15.9014 244.77 15.7392C245.523 15.3793 245.76 14.4973 245.878 12.6204C245.92 11.6185 245.955 10.2638 245.955 9.57935H250.38V15.7815H256.387V20.4243H250.38V28.7009C250.38 30.2179 250.498 31.3398 250.694 32.1018C251.049 33.6189 252.234 33.9011 254.763 33.9011H256.38V38.7838H253.46Z" fill="#19194A"/>
<path d="M258.206 31.1775H263.816C264.29 33.9011 266.144 34.9807 269.384 34.9807C272.701 34.9807 274.005 33.8588 274.005 32.0172C274.005 31.3398 273.726 30.7753 273.133 30.4155C271.991 29.7381 270.011 29.4559 267.837 29.1384C265.781 28.8209 263.691 28.461 261.99 27.5367C260.29 26.6123 259.223 25.06 259.223 22.4987C259.223 18.2581 262.346 15.217 268.59 15.217C275.106 15.217 278.067 18.0535 278.702 22.654H273.405C273.05 20.4173 271.552 19.4153 268.548 19.4153C265.307 19.4153 264.318 20.5725 264.318 22.1742C264.318 22.8515 264.597 23.416 265.189 23.7759C266.332 24.4532 268.353 24.7355 270.52 25.053C272.576 25.3705 274.667 25.7304 276.367 26.6547C278.067 27.572 279.134 29.1313 279.134 31.6926C279.134 36.1308 275.97 39.3695 269.259 39.3695C262.276 39.3836 258.875 36.54 258.206 31.1775Z" fill="#19194A"/>
<path d="M7.81915 0.321777V11.9429H25.4924C25.3878 17.6017 23.3599 22.9431 18.6907 25.9277C16.3561 27.473 13.4082 28.1927 9.54744 28.1927C5.7215 28.1927 2.54366 27.5082 0 26.0618V39.8914C1.82586 40.1736 3.74929 40.3218 5.79119 40.3218C15.032 40.3218 21.1298 36.6174 24.7815 30.9656C26.5098 28.0868 27.7294 24.7988 28.4402 21.4049L29.4577 38.7836H39.5139V0.321777H7.81915Z" fill="#19194A"/>
</svg>
